<svg xmlns="http://www.w3.org/2000/svg" xmlns:xlink="http://www.w3.org/1999/xlink" viewBox="0 0 498.7 498.7" style="enable-background:new 0 0 498.7 498.7" xml:space="preserve"><style>.st1{opacity:.25}.st2,.st3,.st4{clip-path:url(#SVGID_2_);fill:#83d3aa}.st3,.st4{fill:#b3e0e5}.st4{fill:#fab900}.st5{fill:#231f20}.st6{fill:#e7e7e0}.st7{fill:#d32f2f}.st8{fill:#f2f1e8}.st9{fill:#eab296}.st10{fill:#383334}.st11{fill:#fdd2b9}.st12{fill:#f4a7a2}.st13{fill:#ffbd1a}.st15{fill:#929fa9}.st17{fill:#d2d2cc}.st18{fill:#e9e9e7}.st25{fill:#932424}.st26{fill:#e24949}.st28{fill:#5574aa}</style><path style="fill:#fff" d="M-.7-.7h500v500H-.7z" id="BACKGROUND"/><g id="OBJECTS"><g class="st1"><defs><path id="SVGID_1_" class="st1" d="M-.2-.7h500v500H-.2z"/></defs><clipPath id="SVGID_2_"><use xlink:href="#SVGID_1_" style="overflow:visible"/></clipPath><path class="st2" d="M408.3 374c1.7-4.9 2.6-10.1 2.6-15.5 0-26.7-21.6-48.3-48.3-48.3-26.7 0-48.3 21.6-48.3 48.3 0 26.7 21.6 48.3 48.3 48.3h.1c-.1 1-.1 2-.1 3 0 20.3 16.5 36.8 36.8 36.8 20.3 0 36.8-16.5 36.8-36.8 0-17.3-11.9-31.8-27.9-35.8z"/><ellipse class="st3" cx="389.9" cy="133.1" rx="81.8" ry="81.9"/><circle transform="matrix(-.02596 -.9997 .9997 -.02596 -246.56 327.874)" class="st3" cx="36.5" cy="284.1" r="37.6"/><path class="st4" d="M123.6 117.6c2-12.3-6.3-23.9-18.6-26-8.1-1.3-15.9 1.8-20.9 7.6-3.7-1.9-7.6-3.2-11.9-3.9C50 91.6 29 106.7 25.3 128.9c-3.7 22.2 11.3 43.2 33.6 46.9 22.2 3.7 43.2-11.3 46.9-33.6.4-2.1.5-4.3.6-6.4 8.6-1.9 15.6-8.9 17.2-18.2z"/><circle class="st4" cx="93.2" cy="58.7" r="13.3"/><circle class="st4" cx="436.2" cy="335.6" r="13.3"/><circle class="st4" cx="460.1" cy="459.4" r="28.3"/><circle class="st2" cx="180.3" cy="27.6" r="28.3"/><circle class="st4" cx="78.5" cy="426" r="73.4"/><circle class="st2" cx="434.5" cy="70.5" r="25.2"/><circle class="st2" cx="27.1" cy="320.7" r="14.8"/><circle class="st2" cx="23.2" cy="358.1" r="7.4"/><circle class="st2" cx="113.9" cy="398.7" r="10.5"/><circle class="st3" cx="234.2" cy="451.8" r="30.7"/><circle class="st3" cx="436.2" cy="409.8" r="21.6"/><ellipse class="st3" cx="285.4" cy="91.2" rx="6.9" ry="6.5"/><ellipse class="st3" cx="292.7" cy="45.3" rx="14.3" ry="13.4"/><ellipse class="st3" cx="463.7" cy="16.8" rx="14.3" ry="13.4"/></g><path class="st5" d="M276.9 307.3h-55.2s-74.8 37.8-74.8 113.8h204.8c0-76-74.8-113.8-74.8-113.8z"/><path class="st6" d="M249.3 307.3h-27.5l27.5 113.8 27.6-113.8z"/><path class="st7" d="m252.2 351.9 6.4-8.3-4.1-9.4h-10.3l-4.1 9.4 6.3 8.3-12.2 34.8 15.1 34.3v.1-.1l15.2-34.3z"/><path class="st8" d="m220.8 316 10.6 42.1 17.9-29.8z"/><path class="st8" d="m277.9 316-10.7 42.1-17.9-29.8z"/><ellipse class="st9" cx="249.3" cy="310.2" rx="26.5" ry="18.2"/><path class="st10" d="m221.8 307.3-21.4 24.9 18.5 10.1-18.5 18.3 48.9 60.5z"/><path class="st10" d="m276.9 307.3 21.3 24.9-18.5 10.1 18.5 18.3-48.9 60.5z"/><circle class="st11" cx="192.6" cy="273.8" r="12"/><circle class="st9" cx="192.6" cy="273.8" r="6.4"/><circle class="st11" cx="306.1" cy="273.8" r="12"/><circle class="st9" cx="306.1" cy="273.8" r="6.4"/><circle class="st11" cx="249.3" cy="265.9" r="55.1"/><path class="st9" d="M257.9 278.7c0 3.2-3.8 5.7-8.6 5.7-4.7 0-8.6-2.6-8.6-5.7 0-3.2 3.8-14.7 8.6-14.7s8.6 11.6 8.6 14.7z"/><circle class="st5" cx="226.3" cy="263.9" r="5.2"/><circle class="st5" cx="272.3" cy="263.9" r="5.2"/><ellipse class="st12" cx="221.8" cy="280.2" rx="6.2" ry="3.8"/><ellipse class="st12" cx="276.9" cy="280.2" rx="6.2" ry="3.8"/><path class="st5" d="M315 244.4c-3.2-14.3-6.2-28.2-19.5-32.5 0 0-8.2-16.5-19.3-19.3-6.4-1.6-13.5-1.7-18.9-.1-5.2 1.6-10.8 1.6-16.1 0-5.4-1.6-12.5-1.5-18.9.1-11.2 2.8-19.3 19.3-19.3 19.3-13.3 4.3-16.3 18.2-19.5 32.5-3.2 14.3 6 17.8 10 17.5 4-.3 2 11.9 2 11.9s7.7 4.9 6.3-2.9 5.7-7 8.5-14.7c2.8-7.7-3.8-6.5-3.5-13.8s10.8-16.8 18-13.5c2.9 1.3 7.3 3.3 11.7 5.2 8.1 3.5 17.3 3.5 25.4 0 4.3-1.9 8.8-3.9 11.7-5.2 7.2-3.3 17.7 6.2 18 13.5.3 7.3-6.3 6.2-3.5 13.8 2.8 7.7 9.8 6.8 8.5 14.7-1.3 7.8 6.3 2.9 6.3 2.9s-2-12.2 2-11.9c4.1.3 13.3-3.2 10.1-17.5zM259.2 302.4c-.4 0-.8-.1-1.1-.4-4.9-4.9-12.8-4.9-17.7 0-.6.6-1.5.6-2.1 0-.6-.6-.6-1.5 0-2.1 6-6 15.9-6 21.9 0 .6.6.6 1.5 0 2.1-.2.3-.6.4-1 .4z"/><path class="st13" d="M416.8 441.1h-335c-5.5 0-10-4.5-10-10s4.5-10 10-10h335c5.5 0 10 4.5 10 10s-4.5 10-10 10z"/><path d="M416.8 441.1h-335c-5.5 0-10-4.5-10-10h355c0 5.5-4.5 10-10 10z" style="fill:#f9a91c"/><path class="st15" d="M313.9 414.1H184.8c-2.5 0-4.5 2-4.5 4.5v2.4h138.2v-2.4c-.1-2.5-2.1-4.5-4.6-4.5z"/><path d="M310.9 416.1H187.8c-4.2 0-7.5-3.4-7.5-7.5v-67.7c0-4.2 3.4-7.5 7.5-7.5h123.1c4.2 0 7.5 3.4 7.5 7.5v67.7c0 4.2-3.4 7.5-7.5 7.5z" style="fill:#bec9d2"/><path class="st15" d="M262.7 376.6c0 7.4-6 13.4-13.4 13.4s-13.4-6-13.4-13.4 6-13.4 13.4-13.4c.9 0 1.9.1 2.8.3.2 4.6 3.9 8.3 8.6 8.3.4 0 .8 0 1.1-.1.6 1.5.9 3.2.9 4.9z"/><path class="st17" d="M390.8 415.7h-62.6c-1.5 0-2.7 1.2-2.7 2.7 0 1.5 1.2 2.7 2.7 2.7h62.6c1.5 0 2.7-1.2 2.7-2.7 0-1.5-1.2-2.7-2.7-2.7z"/><path class="st18" d="M392.4 418.9h-65.7c-2.7 0-4.8-2.2-4.8-4.8h75.3c0 2.6-2.2 4.8-4.8 4.8z"/><path d="M361.5 414.1h-25.9c-2.9 0-5.3-2.4-5.3-5.3v-2.2c0-2.9 2.4-5.3 5.3-5.3h25.9c2.9 0 5.3 2.4 5.3 5.3v2.2c0 2.9-2.4 5.3-5.3 5.3z" style="fill:#f36c3b"/><path d="M348.6 400.8h-13.4c-3 0-5.5 2.4-5.5 5.5 0 0 3 .8 3.9-1.1.9-1.9 3.4-1.4 3.5-.3.1 1.1.7 4.2 2.8 3.7 2.2-.5 1.3-4 2.5-4.5s1.8 1.2 2.7 2c.9.8 2-1.4 2.6-1.7.5-.3.8-.2.8-.2s.3-.1.8.2c.5.3 1.6 2.5 2.6 1.7.9-.8 1.5-2.5 2.7-2 1.2.5.3 4 2.5 4.5s2.7-2.5 2.8-3.7c.1-1.1 2.6-1.6 3.5.3.9 1.9 3.9 1.1 3.9 1.1 0-3-2.4-5.5-5.5-5.5h-13.2z" style="fill:#4b2d23"/><path style="fill:#b46133" d="M399.8 421.1h-27.7l-4-56.5h35.7z"/><path style="fill:#6ac17b" d="M401.7 403.2h-31.6l-1-20.8h33.6z"/><path class="st17" d="M367.2 362.3h37.4v3.3h-37.4z"/><path class="st18" d="M404.2 365h-36.5c-.7 0-1.3.6-1.3 1.3 0 .7.6 1.3 1.3 1.3h36.5c.7 0 1.3-.6 1.3-1.3 0-.7-.6-1.3-1.3-1.3z"/><path class="st6" d="M399.9 358.9H372l-3.3 3.4h34.4z"/><circle cx="385.9" cy="392.8" r="7.7" style="fill:#207b5d"/><path d="M170.3 396.3c0 4.3-3.5 7.8-7.8 7.8h-59.7v-2.5h2.5V391h-2.5v-2.5h59.7c4.2 0 7.8 3.5 7.8 7.8z" style="fill:#884637"/><path class="st11" d="M162.4 391h-58.9v10.6h58.9c2.9 0 5.3-2.4 5.3-5.3.1-2.9-2.3-5.3-5.3-5.3z"/><path class="st7" d="M154.5 394.4v6.1l1.3-1.4 1.3 1.3v-6zM96.4 404.1h69.1V421H96.4z"/><path class="st25" d="M151.3 404.1h7.4V421h-7.4zM105.7 404.1h7.4V421h-7.4z"/><path class="st26" d="M117.1 408.1h29.8v1.6h-29.8zM117.1 411.8h29.8v1.6h-29.8zM117.1 415.5h29.8v1.6h-29.8z"/><path style="fill:#7d97cd" d="M93.2 380.9h69.1v7.6H93.2z"/><path class="st28" d="M148.2 380.9h7.4v7.6h-7.4zM102.5 380.9h7.4v7.6h-7.4zM114 382.7h29.8v.7H114zM114 384.4h29.8v.7H114zM114 386h29.8v.7H114z"/><text transform="translate(106.382 154.46)" class="st13" style="font-size:146.8353px;font-family:'Broadway'">404</text></g></svg>