<svg data-name="Layer 1" xmlns="http://www.w3.org/2000/svg" width="913" height="441.869"><path d="M124.218 353.275h686.644V5.665H124.218Z" fill="#fff"/><path d="M816.526 358.94H118.554V0h697.972Zm-686.644-11.33h675.316V11.329H129.882Z" fill="#e5e5e5"/><path fill="#6c63ff" d="M444.691 79.203v117.983H273.183l-31.685 38.017 3.618-38.017h-15.417V79.203h214.992z"/><path fill="#f0f0f0" d="M548.482 86.203v75.646h109.963l20.315 24.374-2.319-24.374h9.884V86.203H548.482z"/><path fill="#ffb7b7" d="M94.66 430.711h9.921l4.72-38.266H94.659l.001 38.266z"/><path d="M92.13 427.472h19.538a12.452 12.452 0 0 1 12.451 12.45v.405l-31.989.001Z" fill="#2f2e41"/><path fill="#ffb7b7" d="m213.852 430.385 9.634-2.371-4.561-38.285-14.218 3.499 9.145 37.157z"/><path d="m210.621 427.845 18.972-4.67a12.452 12.452 0 0 1 15.066 9.116l.097.393-31.063 7.644ZM88.56 421.587l2.06-10.544s3.794-40.713 31.02-81.346l8.861-44.139s-2.632-33.41 22.77-51.495l7.831-5.395 27.458 1.574 6.341 34.718 12.777 82.148s3.298.309 4.534 9.808a28.568 28.568 0 0 1 4.328 13.242s6.54 18.04 8.291 31.321l-.206 12.997-13.808 7.356-28.779-81.39-20.584-45.501s-9.907 32.059-25.082 59.523c0 0-20.785 44.987-24.937 54.127l-4.534 14.958Z" fill="#2f2e41"/><circle cx="180.363" cy="139.182" r="19.625" fill="#ffb7b7"/><circle cx="180.363" cy="139.182" r="19.625" fill="#ffb8b8"/><path d="m153.329 234.272 6.478-16.183a72.785 72.785 0 0 1 .8-45.382l1.24-1.02c10.799-8.894 20.276-7.275 29.071 3.603a24.316 24.316 0 0 0 4.921 4.64c3.88 2.722 10.033 17.508 1.908 26.174l-6.5 37.918c.684 20.936-14.507 13.053-37.918-9.75Z" fill="#3f3d56"/><path d="M246.223 212.262a7.185 7.185 0 0 0-10.738 2.47l-16.37-1.274-3.2 9.76 23.143 1.475a7.224 7.224 0 0 0 7.165-12.431Z" fill="#ffb7b7"/><path d="m230.55 228.093-46.646-8.71-15.172-25.436a10.834 10.834 0 0 1 20.382-7.35l7.116 19.677 36.89 6.106Z" fill="#ccc"/><circle cx="145.381" cy="116.055" r="18.828" fill="#2f2e41"/><path d="M129.14 131.646a18.83 18.83 0 0 0 29.076-9.886 18.83 18.83 0 1 1-36.728-7.721 18.822 18.822 0 0 0 7.653 17.607Z" fill="#2f2e41"/><path d="M203.445 131.667c-3.287-5.884-4.545-8.342-8.783-11.92-3.748-3.165-8.358-4.095-12.076-1.096a22.267 22.267 0 1 0 13.436 20.44 22.45 22.45 0 0 0-.152-2.519c3.232-.454 4.343-4.45 7.575-4.905Z" fill="#2f2e41"/><path d="M782.249 272.525a8.893 8.893 0 0 1 10.858-8.25l11.76-16.575 11.816 4.69-16.938 23.174a8.942 8.942 0 0 1-17.496-3.039Z" fill="#a0616a"/><path d="m795.15 258.271 20.91-35.168-8.519-22.718 11.603-30.942.428.184c.28.12 6.874 3.062 7.85 13.598l13.335 41.906-35.587 46.166Z" fill="#3f3d56"/><path d="M681.585 128.982a8.893 8.893 0 0 1 7.386 11.463l15.615 13.008-5.59 11.417-21.793-18.678a8.942 8.942 0 0 1 4.382-17.21Z" fill="#a0616a"/><path d="m694.798 142.947 33.447 23.567 23.308-6.737 29.953 13.96-.216.413c-.142.27-3.585 6.616-14.165 6.775l-42.811 10.054-43.277-39.05Z" fill="#3f3d56"/><path fill="#a0616a" d="M755.999 429.531h-11.628l-5.531-44.85 17.161.001-.002 44.849z"/><path d="M736.066 426.208h22.424v14.12h-36.543a14.12 14.12 0 0 1 14.119-14.12Z" fill="#2f2e41"/><path fill="#a0616a" d="M802.472 429.531h-11.628l-5.531-44.85 17.161.001-.002 44.849z"/><path d="M782.539 426.208h22.424v14.12H768.42a14.12 14.12 0 0 1 14.119-14.12ZM806.607 265.827l-.948 66.39-.949 87.255-20.865-1.897-10.433-120.45-13.278 120.45h-21.541l-2.17-121.399 7.588-26.556 62.596-3.793z" fill="#2f2e41"/><path d="m741.931 270.025-3.179-.137 14.765-81.337-6.045-24.584a5.38 5.38 0 0 1 3.334-6.32l10.877-4.079L765.526 143l30.319 3.267.746 8.26c3.285 1.053 30.34 10.063 28.474 20.33-1.843 10.133-12.722 42.015-13.274 43.63l-1.905 45.723-.235.117c-.282.141-21.18 10.417-43.883 10.415a57.723 57.723 0 0 1-23.837-4.717Z" fill="#3f3d56"/><circle cx="779.497" cy="115.941" r="21.83" fill="#a0616a"/><path d="M797.18 137.072c-4.16 4.432-11.887 2.053-12.429-4.001a7.314 7.314 0 0 1 .01-1.413c.28-2.681 1.828-5.116 1.457-7.948a4.168 4.168 0 0 0-.763-1.95c-3.315-4.44-11.097 1.985-14.226-2.034-1.918-2.464.337-6.344-1.135-9.098-1.943-3.635-7.698-1.842-11.308-3.833-4.015-2.215-3.775-8.376-1.132-12.123 3.224-4.57 8.876-7.01 14.458-7.36s11.125 1.157 16.336 3.187c5.921 2.308 11.792 5.497 15.436 10.703 4.431 6.331 4.857 14.843 2.641 22.247-1.348 4.503-5.948 10.005-9.346 13.623Z" fill="#2f2e41"/><path fill="#ffb8b8" d="m560.665 423.5 3.243-8.342-30.632-16.479-4.787 12.312 32.176 12.509z"/><path d="M578.04 401.739a11.227 11.227 0 0 0-14.538 6.399l-2.188 5.623-3.373 8.68-.824 2.129 10.809 4.204 10.455-26.9ZM557.942 407.446l-1.41 3.74-3.52 9.336-.085.234c-8.968 1.152-18.8-1.107-27.893-4.616a113.381 113.381 0 0 1-10.676-4.764c-5.143-2.599-9.747-5.341-13.42-7.687-5.531-3.55-8.951-6.215-8.951-6.215s-.904.817-2.538 2.217a279.313 279.313 0 0 1-10.128 8.248q-2.538 1.986-5.45 4.155c-14.309 10.613-32.673-17.708-32.673-17.708s5.165-3.288 6.514-3.927c4.345-2.055 14.552-6.905 23.357-11.215 4.537-2.224 8.696-4.31 11.489-5.791 9.889-5.265 22.181 4.697 22.181 4.697Z" fill="#2f2e41"/><path d="m557.942 407.446-1.41 3.74-3.52 9.336-.085.234c-8.968 1.152-18.8-1.107-27.893-4.616a113.381 113.381 0 0 1-10.676-4.764c-5.143-2.599-9.747-5.341-13.42-7.687-5.531-3.55-8.951-6.215-8.951-6.215s-.904.817-2.538 2.217a279.313 279.313 0 0 1-10.128 8.248q-2.538 1.986-5.45 4.155c-14.309 10.613-32.673-17.708-32.673-17.708s5.165-3.288 6.514-3.927c4.345-2.055 14.552-6.905 23.357-11.215 4.537-2.224 8.696-4.31 11.489-5.791 9.889-5.265 22.181 4.697 22.181 4.697Z" opacity=".14"/><path d="M414.813 328.93H372.47a3.289 3.289 0 0 1-3.285-3.285v-18.25a24.456 24.456 0 1 1 48.912 0v18.25a3.289 3.289 0 0 1-3.285 3.285Z" fill="#2f2e41"/><path d="M455.08 351.855a6.845 6.845 0 0 0-5.246 9.092l-11.514 10.59 4.729 8.566 16.05-15.183a6.883 6.883 0 0 0-4.02-13.065Z" fill="#ffb8b8"/><path d="M420.435 400.001q-.78 0-1.562-.067a18.396 18.396 0 0 1-14.818-9.896l-18.446-35.503a10.187 10.187 0 0 1 17.616-10.195l17.017 38.183 23.156-18.814 13.408 5.22-22.643 24.997A18.605 18.605 0 0 1 420.435 400Z" fill="#6c63ff"/><path fill="#ffb8b8" d="m558.077 435.233 3.874-8.068-29.275-18.784-5.718 11.908 31.119 14.944z"/><path d="M577.074 414.87a11.227 11.227 0 0 0-14.988 5.264l-2.613 5.439-4.03 8.395-.985 2.059 10.453 5.022 12.491-26.018ZM556.596 419.017l-1.693 3.621-4.227 9.038-.102.226c-9.03.46-18.66-2.548-27.457-6.745a113.38 113.38 0 0 1-10.278-5.57c-4.928-2.986-9.308-6.074-12.79-8.695-5.242-3.964-8.447-6.884-8.447-6.884s-.964.744-2.701 2.015a279.244 279.244 0 0 1-10.732 7.446q-2.682 1.785-5.752 3.723c-15.083 9.483-36.53 21.032-54.775 23.47-32.04 4.286-24.5-38.472-24.5-38.472l25.5-13.243 10.827 2.197 12.053 2.439 4.27.869s.81-.307 2.205-.84c4.49-1.716 15.039-5.767 24.15-9.388 4.694-1.87 9-3.628 11.9-4.891 10.263-4.49 21.754 6.387 21.754 6.387Z" fill="#2f2e41"/><path d="M346.481 441.683a6.845 6.845 0 0 0 4.769-9.35l10.95-11.172-5.165-8.31-15.243 15.993a6.883 6.883 0 0 0 4.69 12.84Z" fill="#ffb8b8"/><circle cx="399.637" cy="312.673" r="17.073" fill="#ffb8b8"/><path d="m377.426 360.064 14.872 42.164-.09.147c-2.068 3.42-2.744 6.178-1.954 7.977a3.476 3.476 0 0 0 2.203 1.9l35.194-24.599-1.232-9.86.069-.11c3.401-5.442 4.503-10.371 3.274-14.65a14.14 14.14 0 0 0-6.713-8.095l-.123-.097-17.553-21.364-23.465 4.168Z" fill="#6c63ff"/><path d="m354.81 434.071-9.964-12.262 24.018-39.647 11.198-34.613.347.112-.347-.112a13.905 13.905 0 1 1 24.794 11.999l-20.557 30.8Z" fill="#6c63ff"/><path d="M423.884 309.22h-25.891l-.266-3.718-1.327 3.718h-3.987l-.526-7.368-2.631 7.368h-7.714v-.365a19.368 19.368 0 0 1 19.346-19.346h3.65a19.368 19.368 0 0 1 19.346 19.346Z" fill="#2f2e41"/><path d="M397.78 332.337a3.356 3.356 0 0 1-.58-.051l-18.96-3.345v-31.333h20.87l-.516.602c-7.189 8.384-1.773 21.979 2.095 29.336a3.237 3.237 0 0 1-.257 3.437 3.272 3.272 0 0 1-2.651 1.354Z" fill="#2f2e41"/><path fill="#f0f0f0" d="M681.028 276.203v44.141H485.481l-28.237 33.879 3.225-33.879H446.73v-44.141h234.298z"/><circle cx="528.028" cy="298.203" r="8" fill="#fff"/><circle cx="501.028" cy="298.203" r="8" fill="#fff"/><circle cx="474.028" cy="298.203" r="8" fill="#fff"/><path d="M912 441.203H1a1 1 0 0 1 0-2h911a1 1 0 0 1 0 2Z" fill="#cacaca"/></svg>