<svg style="object-fit:cover" version="1" baseProfile="full" viewBox="0 0 1536 711" xmlns="http://www.w3.org/2000/svg"><path fill="#2d2d44" d="M0 0h1536v711H0z"/><defs><linearGradient id="a" x1="0" x2="1" y1="0" y2="0"><stop offset="0%" stop-color="#002f6280"/><stop offset="100%" stop-color="#43d5e480"/></linearGradient></defs><path style="transform-origin:center center 0" d="M0 711V0v71c68.976-3.788 137.952-7.576 212 0s153.169 26.517 207 26c53.831-.517 82.373-20.49 139-30 56.627-9.51 141.34-8.554 215-1s136.27 21.705 190 19c53.73-2.705 98.581-22.267 154-23 55.419-.733 121.405 17.362 193 22 71.595 4.638 148.797-4.181 226-13v640Z" fill="url(#a)" class="transition-all duration-300 ease-in-out delay-150"/><path style="transform-origin:center center 0" d="M0 711V0v106c51.248-1.73 102.497-3.459 174-2s163.262 6.106 237 1 129.457-19.964 181-20c51.543-.036 98.91 14.75 166 21s153.9 3.964 227 2 132.488-3.606 189-5c56.512-1.394 110.146-2.541 170-2 59.854.541 125.927 2.77 192 5v605Z" fill="url(#a)" class="transition-all duration-300 ease-in-out delay-150"/><path style="transform-origin:center center 0" d="M0 711V0v159c67.741 1.932 135.482 3.865 208 9s149.812 13.474 203 7c53.188-6.474 82.27-27.761 136-28 53.73-.239 132.107 20.571 202 29 69.893 8.429 131.301 4.476 192 2 60.699-2.476 120.688-3.474 197-3 76.312.474 168.946 2.421 238 0s114.527-9.21 160-16v552Z" fill="url(#a)" class="transition-all duration-300 ease-in-out delay-150"/></svg>