<svg width="250pt" height="250pt" viewBox="0 0 250 250" xmlns="http://www.w3.org/2000/svg"><path fill="#239f40" d="M89.37 5.16c27.87-8.3 58.66-6.54 85.33 5.11 26.88 11.56 49.37 32.94 62.32 59.19-4.81-.03-9.62-.02-14.43-.01.01.62.04 1.86.06 2.49 5.18 0 10.36.02 15.55-.03l.68 1.48h-4.71l.01 2c1.62.4 3.26.81 4.8 1.49-2.05.23-4.11.36-6.17.46 0-1.33.01-2.65.02-3.97-3.4-.01-6.8-.01-10.2.01l-.03 6.27c.56.04 1.7.12 2.26.17l.36-4.02h5.11c0 1.3.01 2.61.02 3.92 3.4 0 6.81.08 10.21-.07l.25-1.66c.36.84 1.09 2.52 1.46 3.36-.09.55-.28 1.63-.37 2.17-1.17-.8-2.1-2.3-3.73-1.99-5.08-.11-10.16.06-15.24-.01-.31.84-.62 1.68-.92 2.53-.34-.64-1-1.92-1.33-2.56-5.59.22-11.21-.32-16.78.26-.42.46-1.26 1.39-1.68 1.86-.18-.53-.53-1.6-.71-2.13-5.71.07-11.41.07-17.12-.01-.46.86-.93 1.71-1.39 2.57-.22-.63-.64-1.89-.85-2.52-5.71.16-11.44-.33-17.12.22l-1.29 2.05c-.39-.78-.79-1.55-1.18-2.32-5.56.26-11.16-.31-16.7.28-.43.46-1.28 1.38-1.71 1.85-.18-.53-.52-1.59-.7-2.12-5.75.08-11.49.04-17.24.03-.31.62-.91 1.86-1.21 2.48l-1.2-2.48c-5.71.01-11.41.04-17.11-.02-.2.53-.61 1.58-.81 2.1-.41-.47-1.22-1.4-1.63-1.86-5.58-.57-11.23.01-16.83-.27-.27.58-.79 1.72-1.05 2.3-.36-.51-1.07-1.52-1.43-2.02-5.55-.38-11.2-.42-16.75.02-.36.51-1.08 1.52-1.44 2.03-.35-.77-.7-1.54-1.06-2.31-5.6.24-11.24-.31-16.82.27l-1.69 1.85-.72-2.12c-5.69.07-11.37.07-17.06-.01-.47.85-.95 1.69-1.42 2.54-.3-.83-.61-1.66-.91-2.49-5.66.19-11.38-.36-17.01.21-.42.49-1.25 1.46-1.67 1.94-.12-.61-.37-1.84-.5-2.46.63-1.77 1.34-3.51 2.07-5.24-.19.93-.58 2.79-.78 3.72 2.22.02 4.43.02 6.65.01v-2.08c-1.6-.36-3.36-.44-4.68-1.55 2.01-.18 4.02-.27 6.04-.33v3.98c3.4.01 6.81 0 10.21-.03-.02-3.43-.01-6.85-.01-10.27-.62.02-1.85.04-2.47.06l.03 7.74-1.43.04c0-2.6 0-5.19.01-7.79-.61-.02-1.83-.04-2.44-.06.01 2.61.01 5.21.01 7.82l-1.46.01c0-2.6.01-5.2.03-7.8h-2.49l.03 3.91c-2.04 0-4.07.01-6.1.02l.57-1.15c1.57-.23 3.14-.44 4.71-.64-.9-1.11-1.86-2.18-2.73-3.31C28.77 38.01 56.93 14.66 89.37 5.16M28.96 69.58c-.07.59-.22 1.76-.29 2.35 8.66.03 17.31.12 25.97-.09l-.16-2.39c-8.5.09-17.02-.22-25.52.13m38.56-.12c.02.62.05 1.86.07 2.48 8.61-.04 17.22.16 25.83-.03-.07-.58-.19-1.74-.26-2.32-8.53-.37-17.09-.06-25.64-.13m34.92.01c.02 2.59.03 5.19.04 7.79l-1.43-.04c.01-2.59.02-5.17.02-7.75l-2.46-.04c0 2.8.04 5.6-.21 8.38-2.43-1.95-.79-5.67-1.25-8.37h-2.41c-.01.97-.02 2.92-.03 3.9-2.58.02-5.17.03-7.76.05-.01 2.1-.02 4.21-.02 6.31 2.13.01 4.25.02 6.38.01l-.06-2.44c-1.27-.01-2.53-.02-3.79-.02-.02-.37-.05-1.09-.07-1.45 1.75 0 3.5-.01 5.25-.01.04 1.31.08 2.62.13 3.94 3.38-.01 6.76 0 10.14-.02-.03-3.44-.02-6.87-.04-10.3-.61.01-1.82.04-2.43.06m3.87-.02c-.01.61-.03 1.82-.05 2.43 8.61.14 17.23.13 25.84.01l-.2-2.48c-8.53.07-17.06 0-25.59.04m27.14 0c0 1.3.01 2.6.01 3.9-2.58.01-5.15.01-7.73.02-.01 2.12-.01 4.24 0 6.36l6.35-.03c-.03-.6-.07-1.81-.1-2.42-1.26-.01-2.52-.03-3.78-.04l-.03-1.43c1.76-.01 3.51-.01 5.27-.02l-.03 3.86c3.45.09 6.9.09 10.36.06-.02-3.43-.02-6.85 0-10.28-.63.01-1.89.02-2.52.03.02 2.6.03 5.2.04 7.81l-1.51-.03c0-2.6.01-5.2.03-7.8-.62 0-1.88.01-2.5.01l.03 7.76-1.46.04c0-2.6.01-5.21.01-7.81-.61 0-1.83.01-2.44.01m11.73 0c-.03.6-.08 1.81-.11 2.42 8.62.16 17.23.11 25.84 0-.02-.61-.08-1.82-.11-2.43-8.54 0-17.08-.01-25.62.01m27.03 0c.01 1.3.01 2.59.02 3.89-2.59.02-5.18.02-7.78.04v6.34c2.14 0 4.28-.01 6.43-.03-.01-.59-.03-1.78-.03-2.38-1.34-.03-2.68-.07-4.02-.11l.1-1.4h5.28c0 1.3.01 2.61.01 3.91 3.4.02 6.81.02 10.21 0-.01-3.43 0-6.86.01-10.29-.62.01-1.85.05-2.46.06.06 2.58.08 5.17.09 7.75l-1.53.01c.01-2.59.01-5.18.03-7.77-.61-.01-1.82-.05-2.43-.06-.01 2.61-.01 5.22-.01 7.84h-1.45l.03-7.8h-2.5m11.71-.02-.08 2.51c8.61-.1 17.22.21 25.83-.1l-.16-2.4c-8.53-.01-17.06.02-25.59-.01m-127.99.05c0 .96-.01 2.89-.02 3.85-2.58.02-5.16.03-7.74.05.01 2.12.02 4.23.02 6.35 2.13-.01 4.26-.02 6.39-.04l-.07-2.42c-1.27 0-2.54-.01-3.82-.02.01-.37.01-1.11.01-1.49 1.72.02 3.43.04 5.15.05l.12 3.89c3.39.03 6.78.03 10.17.02-.01-3.43.02-6.85.01-10.27-.61-.01-1.83-.01-2.45-.01 0 2.59.01 5.19.02 7.79-.37 0-1.12 0-1.49.01.01-2.6.02-5.2.02-7.8h-2.43c-.41 2.73 1.12 6.33-1.19 8.41-.32-2.8-.28-5.62-.26-8.43-.61.02-1.83.04-2.44.06m155.05 0c-.02.96-.05 2.89-.06 3.86-2.57.02-5.13.02-7.7.04v6.34c2.13 0 4.26-.01 6.39-.02l-.04-2.41c-1.29-.02-2.59-.03-3.88-.05V75.8h5.17c.06 1.3.13 2.61.2 3.91 3.37.02 6.74.01 10.11.01 0-3.42.02-6.85.01-10.28h-2.43c0 2.6 0 5.2.02 7.79h-1.49c.01-2.6.02-5.2.02-7.79h-2.45c.02 2.71.04 5.43-.02 8.14-2.92-1.24-.76-5.68-1.39-8.15-.61.01-1.85.03-2.46.05m-182.1 3.87c-.04 2.12-.06 4.23-.08 6.35.6 0 1.81.01 2.41.02.04-1.31.08-2.62.11-3.93 1.74 0 3.47.01 5.2.01l.12 3.94c3.38-.02 6.76-.02 10.14-.03v-6.34c-2.12 0-4.24 0-6.35.01-.01.59-.04 1.78-.05 2.37 1.32.03 2.64.05 3.95.07l-.05 1.45-5.16-.03c-.05-1.29-.09-2.58-.13-3.86-3.37-.02-6.74-.02-10.11-.03m38.68.04c.01 2.11.01 4.22.01 6.34.61-.02 1.83-.05 2.44-.07.02-.97.08-2.89.1-3.86h5.18v3.92c3.42.01 6.84.01 10.26-.01-.01-2.12-.01-4.24-.01-6.36-2.16.01-4.33.03-6.49.07l.16 2.36c1.3.01 2.61.02 3.92.04l-.02 1.42c-1.78 0-3.56.01-5.34.01 0-1.29.01-2.58.02-3.87-3.41-.03-6.82-.03-10.23.01m38.75-.02c.01 2.12.01 4.23.02 6.35.61 0 1.85-.01 2.46-.01V75.8c1.78 0 3.55.01 5.33.02l-.03 3.89c3.38.01 6.75.01 10.13.04.03-2.13.05-4.26.07-6.39-2.11 0-4.23.01-6.34.02 0 .6-.01 1.79-.01 2.38l3.83.06.09 1.42c-1.77.01-3.54.01-5.3.01-.01-1.3-.02-2.59-.02-3.88-3.41-.01-6.82-.02-10.23 0m38.85.01c.01 2.11.01 4.22.01 6.33.59 0 1.77.01 2.37.01 0-1.3.01-2.61.03-3.91l5.19-.03c.04 1.31.08 2.63.13 3.94 3.39.01 6.79.01 10.19-.02-.02-2.12-.03-4.23-.05-6.35-2.17.5-7.11-1.56-6.49 2.4 1.35.03 2.71.05 4.06.06-.01.36-.04 1.09-.05 1.45-1.75-.01-3.5-.01-5.24-.01-.02-1.28-.02-2.56-.03-3.84-3.37-.06-6.75-.06-10.12-.03m38.71-.01c0 2.12-.01 4.24-.02 6.37.82-.03 1.64-.06 2.46-.08 0-1.29.02-2.58.03-3.87h5.25c-.01 1.29-.02 2.58-.02 3.86 3.41.09 6.83.09 10.25.06-.01-2.11 0-4.23.01-6.34-2.12-.01-4.23 0-6.34.01-.02.59-.05 1.77-.06 2.36 1.32.03 2.64.06 3.97.08l-.11 1.44c-1.71-.01-3.42-.01-5.13-.02-.07-1.3-.14-2.59-.2-3.88-3.36 0-6.73 0-10.09.01m-150.79 4c-1.52 1.02.25 3.42 1.68 2.28 1.55-1.01-.25-3.48-1.68-2.28m38.42-.06c0 .59 0 1.78-.01 2.37.6.02 1.78.05 2.38.06v-2.52c-.59.02-1.78.07-2.37.09m38.73-.09c-.02.62-.06 1.84-.09 2.46.64.01 1.91.02 2.55.03l.04-2.38c-.63-.02-1.88-.08-2.5-.11m39.15.1c-1.52 1 .18 3.48 1.65 2.34 1.53-.99-.2-3.45-1.65-2.34m38.77 0c-1.53.97.13 3.48 1.61 2.37 1.52-.97-.13-3.51-1.61-2.37m38.32-.01-.04 2.35c.61.03 1.83.08 2.45.11 0-.64.02-1.92.03-2.55-.61.02-1.83.06-2.44.09Z"/><g fill="#fff"><path d="M11.68 72.22c.66-1.32 1.27-2.65 1.98-3.95.87 1.13 1.83 2.2 2.73 3.31-1.57.2-3.14.41-4.71.64Z"/><path d="M17.18 69.44h2.49c-.02 2.6-.03 5.2-.03 7.8l1.46-.01c0-2.61 0-5.21-.01-7.82.61.02 1.83.04 2.44.06-.01 2.6-.01 5.19-.01 7.79l1.43-.04-.03-7.74c.62-.02 1.85-.04 2.47-.06 0 3.42-.01 6.84.01 10.27-3.4.03-6.81.04-10.21.03v-3.98c-2.02.06-4.03.15-6.04.33 1.32 1.11 3.08 1.19 4.68 1.55v2.08c-2.22.01-4.43.01-6.65-.01.2-.93.59-2.79.78-3.72.37-.88.74-1.75 1.15-2.6 2.03-.01 4.06-.02 6.1-.02l-.03-3.91ZM28.96 69.58c8.5-.35 17.02-.04 25.52-.13l.16 2.39c-8.66.21-17.31.12-25.97.09.07-.59.22-1.76.29-2.35ZM67.52 69.46c8.55.07 17.11-.24 25.64.13.07.58.19 1.74.26 2.32-8.61.19-17.22-.01-25.83.03-.02-.62-.05-1.86-.07-2.48Z"/><path d="M102.44 69.47c.61-.02 1.82-.05 2.43-.06.02 3.43.01 6.86.04 10.3-3.38.02-6.76.01-10.14.02-.05-1.32-.09-2.63-.13-3.94-1.75 0-3.5.01-5.25.01.02.36.05 1.08.07 1.45 1.26 0 2.52.01 3.79.02l.06 2.44c-2.13.01-4.25 0-6.38-.01 0-2.1.01-4.21.02-6.31 2.59-.02 5.18-.03 7.76-.05.01-.98.02-2.93.03-3.9h2.41c.46 2.7-1.18 6.42 1.25 8.37.25-2.78.21-5.58.21-8.38l2.46.04c0 2.58-.01 5.16-.02 7.75l1.43.04c-.01-2.6-.02-5.2-.04-7.79ZM106.31 69.45c8.53-.04 17.06.03 25.59-.04l.2 2.48c-8.61.12-17.23.13-25.84-.01.02-.61.04-1.82.05-2.43Z"/><path d="M133.45 69.45c.61 0 1.83-.01 2.44-.01 0 2.6-.01 5.21-.01 7.81l1.46-.04-.03-7.76c.62 0 1.88-.01 2.5-.01-.02 2.6-.03 5.2-.03 7.8l1.51.03c-.01-2.61-.02-5.21-.04-7.81.63-.01 1.89-.02 2.52-.03-.02 3.43-.02 6.85 0 10.28-3.46.03-6.91.03-10.36-.06l.03-3.86c-1.76.01-3.51.01-5.27.02l.03 1.43c1.26.01 2.52.03 3.78.04.03.61.07 1.82.1 2.42l-6.35.03c-.01-2.12-.01-4.24 0-6.36 2.58-.01 5.15-.01 7.73-.02 0-1.3-.01-2.6-.01-3.9ZM145.18 69.45c8.54-.02 17.08-.01 25.62-.01.03.61.09 1.82.11 2.43-8.61.11-17.22.16-25.84 0 .03-.61.08-1.82.11-2.42Z"/><path d="M172.21 69.45h2.5l-.03 7.8h1.45c0-2.62 0-5.23.01-7.84.61.01 1.82.05 2.43.06-.02 2.59-.02 5.18-.03 7.77l1.53-.01c-.01-2.58-.03-5.17-.09-7.75.61-.01 1.84-.05 2.46-.06-.01 3.43-.02 6.86-.01 10.29-3.4.02-6.81.02-10.21 0 0-1.3-.01-2.61-.01-3.91h-5.28l-.1 1.4c1.34.04 2.68.08 4.02.11 0 .6.02 1.79.03 2.38-2.15.02-4.29.03-6.43.03v-6.34c2.6-.02 5.19-.02 7.78-.04-.01-1.3-.01-2.59-.02-3.89ZM183.92 69.43c8.53.03 17.06 0 25.59.01l.16 2.4c-8.61.31-17.22 0-25.83.1l.08-2.51ZM55.93 69.48c.61-.02 1.83-.04 2.44-.06-.02 2.81-.06 5.63.26 8.43 2.31-2.08.78-5.68 1.19-8.41h2.43c0 2.6-.01 5.2-.02 7.8.37-.01 1.12-.01 1.49-.01-.01-2.6-.02-5.2-.02-7.79.62 0 1.84 0 2.45.01.01 3.42-.02 6.84-.01 10.27-3.39.01-6.78.01-10.17-.02l-.12-3.89c-1.72-.01-3.43-.03-5.15-.05 0 .38 0 1.12-.01 1.49 1.28.01 2.55.02 3.82.02l.07 2.42c-2.13.02-4.26.03-6.39.04 0-2.12-.01-4.23-.02-6.35 2.58-.02 5.16-.03 7.74-.05.01-.96.02-2.89.02-3.85Z"/><path d="M210.98 69.48c.61-.02 1.85-.04 2.46-.05.63 2.47-1.53 6.91 1.39 8.15.06-2.71.04-5.43.02-8.14h2.45c0 2.59-.01 5.19-.02 7.79h1.49c-.02-2.59-.02-5.19-.02-7.79h2.43c.01 3.43-.01 6.86-.01 10.28-3.37 0-6.74.01-10.11-.01-.07-1.3-.14-2.61-.2-3.91h-5.17v1.44c1.29.02 2.59.03 3.88.05l.04 2.41c-2.13.01-4.26.02-6.39.02v-6.34c2.57-.02 5.13-.02 7.7-.04.01-.97.04-2.9.06-3.86ZM222.59 69.45c4.81-.01 9.62-.02 14.43.01.29.61.88 1.84 1.18 2.45-5.19.05-10.37.03-15.55.03-.02-.63-.05-1.87-.06-2.49ZM28.88 73.35c3.37.01 6.74.01 10.11.03.04 1.28.08 2.57.13 3.86l5.16.03.05-1.45c-1.31-.02-2.63-.04-3.95-.07.01-.59.04-1.78.05-2.37 2.11-.01 4.23-.01 6.35-.01v6.34c-3.38.01-6.76.01-10.14.03l-.12-3.94c-1.73 0-3.46-.01-5.2-.01-.03 1.31-.07 2.62-.11 3.93-.6-.01-1.81-.02-2.41-.02.02-2.12.04-4.23.08-6.35ZM67.56 73.39c3.41-.04 6.82-.04 10.23-.01-.01 1.29-.02 2.58-.02 3.87 1.78 0 3.56-.01 5.34-.01l.02-1.42c-1.31-.02-2.62-.03-3.92-.04l-.16-2.36c2.16-.04 4.33-.06 6.49-.07 0 2.12 0 4.24.01 6.36-3.42.02-6.84.02-10.26.01V75.8h-5.18c-.02.97-.08 2.89-.1 3.86-.61.02-1.83.05-2.44.07 0-2.12 0-4.23-.01-6.34ZM106.31 73.37c3.41-.02 6.82-.01 10.23 0 0 1.29.01 2.58.02 3.88 1.76 0 3.53 0 5.3-.01l-.09-1.42-3.83-.06c0-.59.01-1.78.01-2.38 2.11-.01 4.23-.02 6.34-.02-.02 2.13-.04 4.26-.07 6.39-3.38-.03-6.75-.03-10.13-.04l.03-3.89c-1.78-.01-3.55-.02-5.33-.02v3.91c-.61 0-1.85.01-2.46.01-.01-2.12-.01-4.23-.02-6.35ZM145.16 73.38c3.37-.03 6.75-.03 10.12.03.01 1.28.01 2.56.03 3.84 1.74 0 3.49 0 5.24.01.01-.36.04-1.09.05-1.45-1.35-.01-2.71-.03-4.06-.06-.62-3.96 4.32-1.9 6.49-2.4.02 2.12.03 4.23.05 6.35-3.4.03-6.8.03-10.19.02-.05-1.31-.09-2.63-.13-3.94l-5.19.03c-.02 1.3-.03 2.61-.03 3.91-.6 0-1.78-.01-2.37-.01 0-2.11 0-4.22-.01-6.33ZM183.87 73.37c3.36-.01 6.73-.01 10.09-.01.06 1.29.13 2.58.2 3.88 1.71.01 3.42.01 5.13.02l.11-1.44c-1.33-.02-2.65-.05-3.97-.08.01-.59.04-1.77.06-2.36 2.11-.01 4.22-.02 6.34-.01-.01 2.11-.02 4.23-.01 6.34-3.42.03-6.84.03-10.25-.06 0-1.28.01-2.57.02-3.86h-5.25c-.01 1.29-.03 2.58-.03 3.87-.82.02-1.64.05-2.46.08.01-2.13.02-4.25.02-6.37ZM222.63 73.38c3.4-.02 6.8-.02 10.2-.01-.01 1.32-.02 2.64-.02 3.97 2.06-.1 4.12-.23 6.17-.46-1.54-.68-3.18-1.09-4.8-1.49l-.01-2h4.71c.68 1.52 1.33 3.05 1.93 4.6l-.25 1.66c-3.4.15-6.81.07-10.21.07-.01-1.31-.02-2.62-.02-3.92h-5.11l-.36 4.02c-.56-.05-1.7-.13-2.26-.17l.03-6.27Z"/><path d="M33.08 77.37c1.43-1.2 3.23 1.27 1.68 2.28-1.43 1.14-3.2-1.26-1.68-2.28ZM71.5 77.31c.59-.02 1.78-.07 2.37-.09v2.52c-.6-.01-1.78-.04-2.38-.06.01-.59.01-1.78.01-2.37ZM110.23 77.22c.62.03 1.87.09 2.5.11l-.04 2.38c-.64-.01-1.91-.02-2.55-.03.03-.62.07-1.84.09-2.46ZM149.38 77.32c1.45-1.11 3.18 1.35 1.65 2.34-1.47 1.14-3.17-1.34-1.65-2.34ZM188.15 77.32c1.48-1.14 3.13 1.4 1.61 2.37-1.48 1.11-3.14-1.4-1.61-2.37ZM226.47 77.31c.61-.03 1.83-.07 2.44-.09-.01.63-.03 1.91-.03 2.55-.62-.03-1.84-.08-2.45-.11l.04-2.35ZM7.91 168.86c-10.52-27.94-10.54-59.7-.02-87.65.13.62.38 1.85.5 2.46.42-.48 1.25-1.45 1.67-1.94 5.63-.57 11.35-.02 17.01-.21.3.83.61 1.66.91 2.49.47-.85.95-1.69 1.42-2.54 5.69.08 11.37.08 17.06.01l.72 2.12 1.69-1.85c5.58-.58 11.22-.03 16.82-.27.36.77.71 1.54 1.06 2.31.36-.51 1.08-1.52 1.44-2.03 5.55-.44 11.2-.4 16.75-.02.36.5 1.07 1.51 1.43 2.02.26-.58.78-1.72 1.05-2.3 5.6.28 11.25-.3 16.83.27.41.46 1.22 1.39 1.63 1.86.2-.52.61-1.57.81-2.1 5.7.06 11.4.03 17.11.02l1.2 2.48c.3-.62.9-1.86 1.21-2.48 5.75.01 11.49.05 17.24-.03.18.53.52 1.59.7 2.12.43-.47 1.28-1.39 1.71-1.85 5.54-.59 11.14-.02 16.7-.28.39.77.79 1.54 1.18 2.32l1.29-2.05c5.68-.55 11.41-.06 17.12-.22.21.63.63 1.89.85 2.52.46-.86.93-1.71 1.39-2.57 5.71.08 11.41.08 17.12.01.18.53.53 1.6.71 2.13.42-.47 1.26-1.4 1.68-1.86 5.57-.58 11.19-.04 16.78-.26.33.64.99 1.92 1.33 2.56.3-.85.61-1.69.92-2.53 5.08.07 10.16-.1 15.24.01 1.63-.31 2.56 1.19 3.73 1.99.09-.54.28-1.62.37-2.17.11.14.33.4.44.53.96 4.22 2.51 8.28 3.53 12.49 6.08 24.44 4.79 50.76-4.1 74.36-.15-.64-.44-1.9-.58-2.54-.39.53-1.16 1.58-1.55 2.1-5.68.5-11.41.03-17.11.19-.29-.88-.59-1.75-.88-2.63-.33.67-1 2-1.33 2.67-5.61-.21-11.24.26-16.83-.23-.4-.49-1.18-1.48-1.58-1.97-.2.55-.59 1.65-.79 2.2-5.64-.23-11.3.26-16.92-.2-.38-.51-1.14-1.54-1.52-2.05-.29.51-.87 1.52-1.16 2.02-5.6.36-11.28.32-16.89.02-.28-.45-.84-1.36-1.12-1.81-.53.46-1.6 1.4-2.13 1.87-5.41.34-10.83-.05-16.25.16-.22-.56-.67-1.68-.89-2.24-.36.5-1.08 1.51-1.44 2.01-5.66.46-11.35.04-17.02.19-.29-.65-.86-1.96-1.15-2.61-.29.65-.86 1.95-1.14 2.61-5.78-.01-11.55-.04-17.32.02-.12-.56-.35-1.69-.47-2.26-.46.51-1.38 1.53-1.85 2.04-5.5.28-11.09.45-16.58-.06-.38-.43-1.14-1.28-1.52-1.71-.28.45-.84 1.34-1.12 1.79-5.6.3-11.28.35-16.87-.03-.35-.54-1.06-1.62-1.41-2.16-.27.6-.8 1.82-1.06 2.42-5.61-.26-11.24.25-16.83-.25-.4-.49-1.22-1.47-1.62-1.96-.19.54-.55 1.64-.74 2.19-5.72-.07-11.44-.06-17.16 0-.33-.67-.99-2-1.33-2.67-.29.87-.59 1.75-.89 2.64-5.69-.17-11.42.3-17.1-.2-.39-.52-1.18-1.58-1.57-2.11-.13.67-.38 2.01-.51 2.68m108.83-73.11c.2 2 .3 4.43 2.38 5.46 1.92 1.33 4.1.23 5.88-.75 1.78.99 3.98 2.08 5.91.73 2.06-1.03 2.15-3.44 2.35-5.43-1.12 1-2.15 2.12-3.39 2.98-1.79.83-3.44-.46-4.87-1.37-1.41.89-3.04 2.17-4.82 1.4-1.27-.86-2.3-2-3.44-3.02m4.57 8.81c-.23 13.61.35 27.21 1 40.8-6.03-5.24-11.11-12.16-12.17-20.27-1.29-7.62 1.21-15.25 4.77-21.91-6.78 5.41-9.5 14.41-9.54 22.8.11 9.76 6.4 18.5 14.6 23.37-3.58 1.27-7.37 1.54-11.13 1.71 4.37 1.85 9.17 1.66 13.77 1.03.8 1.07 1.59 2.14 2.39 3.21.79-1.07 1.59-2.14 2.38-3.21 4.67.69 9.5.71 13.97-1-3.82-.24-7.68-.43-11.32-1.75 7.87-4.75 14.17-12.94 14.64-22.37.27-8.74-2.53-18.16-9.58-23.79 3.57 6.66 6.06 14.3 4.77 21.92-1.06 8.11-6.15 15.02-12.17 20.26.66-13.59 1.21-27.18 1.01-40.79-1.25-1.05-2.48-2.12-3.7-3.21-1.21 1.09-2.44 2.15-3.69 3.2m-20.11 4.6c-5.14 5.12-7.42 12.86-6.02 19.96 1.13 6.79 5.27 12.91 10.96 16.73-3.38-6.06-6.29-12.74-5.84-19.85.26-9.16 5.44-17.34 11.93-23.47-4.01 1.56-8 3.5-11.03 6.63m36.55-6.63c6.89 6.22 11.97 14.96 11.97 24.42.16 6.8-2.62 13.2-5.93 18.99 9.18-6.01 13.97-18.36 10.06-28.81-2.49-7.23-9.01-12.27-16.1-14.6ZM8.38 170.24c2.49.03 4.97.05 7.45.07 0 .57-.01 1.71-.02 2.28-2.01.13-4.05.22-6.01.77l-.04.28c-.5-1.11-.95-2.26-1.38-3.4Z"/><path d="M17.19 170.28c.61 0 1.85 0 2.46.01 0 2.62-.01 5.24 0 7.87l1.45-.07c0-2.61 0-5.21-.01-7.81.61 0 1.82.01 2.43.01 0 2.61 0 5.22.01 7.84l1.38-.01c.01-2.61.02-5.21.02-7.81l2.45-.04c.01 3.43 0 6.85.01 10.28-3.41.01-6.82.01-10.23 0 .02-1.34.03-2.67.05-4.01-1.57-.04-3.1.17-4.59.62.95.97 2.19 1.46 3.73 1.49-.82 1.08-1.7 2.11-2.59 3.13-1.49-2.5-2.76-5.12-3.86-7.81 2.42.23 4.86.25 7.29.29v-3.98ZM28.81 170.28c8.61 0 17.22-.01 25.83 0-.05.58-.13 1.72-.17 2.29-8.53.43-17.1.06-25.65.18 0-.62 0-1.85-.01-2.47ZM67.66 170.24c8.54.09 17.09.02 25.63.04l-.08 2.48c-8.56-.02-17.12-.02-25.68 0 .04-.63.1-1.89.13-2.52Z"/><path d="m102.45 170.3 2.44-.04c-.01 3.43-.02 6.86.02 10.29-3.39.01-6.79.01-10.18 0-.01-1.3-.01-2.6-.02-3.89-1.81-.01-3.62 0-5.42.01l.32 1.47c.91-.01 2.74-.02 3.66-.03 0 .61.01 1.84.01 2.45-2.11 0-4.23-.01-6.34-.02 0-2.11 0-4.22.01-6.33 2.54-.01 5.09-.01 7.64.02.07-1.32.14-2.64.2-3.95h2.35c-.01 2.77-.03 5.54.16 8.3 2.63-1.77.74-5.67 1.29-8.31.62.02 1.85.04 2.46.05 0 2.6.01 5.2.04 7.8l1.37.01c0-2.61 0-5.22-.01-7.83ZM106.31 170.54c8.56-.6 17.18-.12 25.77-.24-.01.61-.03 1.82-.03 2.43-8.6.05-17.19 0-25.79.03.01-.56.04-1.67.05-2.22Z"/><path d="M133.46 170.28c.61 0 1.83.01 2.44.01-.01 2.6-.02 5.2-.02 7.81l1.44.04c.01-2.62 0-5.24 0-7.85h2.48c-.01 2.62-.02 5.24-.01 7.85l1.5-.04c0-2.6 0-5.2-.02-7.8.62-.01 1.87-.01 2.49-.02-.01 3.42-.02 6.84.02 10.27-3.45.02-6.89.02-10.33 0 0-1.31 0-2.62.01-3.93-1.96.02-3.91.06-5.86.21.93 1.68 2.9 1.16 4.45 1.45 0 .57.01 1.7.01 2.26-2.11.01-4.22.02-6.33.02v-6.35c2.57-.01 5.13-.01 7.7-.02l.03-3.91ZM145.14 170.31c8.57-.05 17.15-.05 25.72 0v2.4c-8.58.06-17.16.06-25.75.01.01-.61.02-1.81.03-2.41Z"/><path d="M172.21 170.28c.63.01 1.87.01 2.49.01-.01 2.61-.02 5.22 0 7.84l1.44-.02c0-2.61-.01-5.22-.02-7.82h2.45c-.03 2.77-.06 5.55.13 8.33 2.53-1.87.9-5.64 1.28-8.29.61-.02 1.84-.05 2.45-.07.01 3.43-.01 6.86.01 10.29-3.42.02-6.84.02-10.25-.01l.06-3.88c-1.8-.01-3.59-.01-5.39 0l.04 1.42c1.32.04 2.65.07 3.98.12l-.04 2.34c-2.13.01-4.26.02-6.39.01 0-2.11.01-4.23 0-6.34 2.59-.01 5.19-.01 7.78-.02-.01-1.3-.01-2.6-.02-3.91ZM183.87 170.28c8.6 0 17.2-.01 25.8.01-.03.57-.1 1.72-.13 2.29-8.55.41-17.12.05-25.67.17v-2.47ZM222.61 170.29c6.32-.02 12.65-.01 18.97-.01-.32.83-.65 1.65-.99 2.47-6 0-11.99.01-17.99-.01 0-.61.01-1.84.01-2.45ZM55.95 170.31l2.43-.04c.63 2.56-1.45 6.79 1.35 8.23.13-2.74.11-5.48.1-8.22h2.42v7.67c.36 0 1.09.02 1.46.03 0-2.56 0-5.13-.01-7.69.61 0 1.83-.01 2.44-.01.02 3.42-.01 6.84 0 10.26-3.37.02-6.74.02-10.11.02-.06-1.3-.12-2.6-.17-3.89l-5.2-.03v1.45c1.3.02 2.61.05 3.91.08-.01.6-.03 1.79-.05 2.39-2.11 0-4.23-.01-6.35-.01.01-2.12.02-4.23.01-6.34 2.56-.01 5.12-.01 7.68-.02.02-.97.07-2.91.09-3.88Z"/><path d="M210.98 170.33c.61-.02 1.84-.05 2.45-.07.55 2.65-1.33 6.53 1.28 8.33.19-2.77.17-5.54.17-8.31.6 0 1.82.01 2.42.01-.01 2.55-.01 5.11-.01 7.67.36 0 1.09.01 1.45.02.01-2.57.01-5.13.01-7.7h2.44c0 3.42-.03 6.83-.01 10.25-3.39.04-6.77.04-10.15.02-.05-1.3-.09-2.59-.12-3.88l-5.22-.03.02 1.45c1.29.02 2.59.05 3.89.07 0 .6-.02 1.79-.02 2.39-2.13.01-4.25 0-6.38 0 .02-2.12.02-4.23.02-6.34 2.55-.01 5.11-.01 7.66-.01.03-.97.08-2.91.1-3.87ZM40.4 174.23c2.12-.02 4.25-.03 6.38-.03 0 2.11 0 4.23.02 6.35-3.41.01-6.82.01-10.22 0 0-1.3-.01-2.6-.01-3.89-1.76-.01-3.52-.01-5.28-.01-.03 1.3-.04 2.61-.06 3.91h-2.4v-6.36c3.39-.01 6.78-.01 10.16.03.04.98.13 2.92.17 3.9 1.71-.01 3.42-.02 5.14-.02l.01-1.44c-1.3-.02-2.61-.04-3.91-.05v-2.39ZM67.56 174.21c3.41-.01 6.82-.02 10.22 0v3.91h5.33l.02-1.44c-1.33-.03-2.65-.05-3.98-.08-.01-.59-.02-1.77-.02-2.36 2.14-.03 4.27-.04 6.42-.04-.01 2.11-.01 4.23 0 6.35-3.43.01-6.85.01-10.28 0 .02-1.3.04-2.6.05-3.9-1.73 0-3.46.01-5.2.01l-.24 3.99c-.58-.04-1.74-.11-2.32-.14.01-2.1.01-4.2 0-6.3ZM106.32 174.21c3.4-.01 6.81-.01 10.21 0 .02 1.32.03 2.65.05 3.98 1.91-.39 4.59.78 5.78-1.35-1.46-.11-2.91-.21-4.37-.27-.02-.59-.06-1.76-.07-2.34 2.11-.02 4.23-.03 6.35-.03 0 2.11 0 4.23.01 6.35-3.4.02-6.8.02-10.2-.01.01-1.29.03-2.59.05-3.88-1.79-.01-3.58-.01-5.37-.01l.06 3.88c-.63.01-1.88.02-2.51.03.01-2.12.01-4.24.01-6.35ZM145.17 174.22c3.34-.02 6.68-.02 10.03-.03.07 1.32.14 2.64.23 3.96 1.66-.02 3.33-.03 5-.04.07-.35.2-1.07.26-1.43l-3.96-.06-.01-2.42c2.11 0 4.23.01 6.34.02 0 2.11-.01 4.22-.02 6.32-3.41.03-6.82.04-10.23-.03 0-1.29.01-2.57.02-3.85-1.77-.01-3.53-.01-5.29 0 0 1.29 0 2.59.01 3.89h-2.39c.01-2.11.01-4.22.01-6.33ZM183.87 174.2c3.39 0 6.77-.01 10.16.02l.15 3.91c1.72-.01 3.43-.01 5.15-.01l.02-1.45-3.89-.06c0-.59-.01-1.79-.01-2.38 2.12-.02 4.24-.03 6.37-.03-.01 2.12-.01 4.23.01 6.34-3.41.03-6.82.03-10.22.01v-3.89c-1.77-.01-3.53-.01-5.3 0-.01 1.29-.01 2.59-.02 3.9h-2.43c0-2.12.01-4.24.01-6.36ZM222.62 174.2c3.4 0 6.8 0 10.2.01-.01 1.37-.01 2.75-.01 4.13 1.32-.14 2.64-.32 3.96-.55.13-.22.37-.66.5-.89-.78-.12-2.34-.38-3.12-.51.01-.53.02-1.59.03-2.12 1.94-.04 3.88-.06 5.82-.17-.9 2.19-1.89 4.34-2.97 6.45h-6.7c.01-1.3.01-2.6.02-3.9-1.73 0-3.45 0-5.18.01-.09 1.33-.19 2.65-.28 3.98-.57-.03-1.71-.1-2.28-.13 0-2.11 0-4.21.01-6.31Z"/><path d="M33.01 178.29c1.35-1.29 3.34 1.01 1.85 2.15-1.32 1.25-3.29-1.02-1.85-2.15ZM71.46 178.2l2.45-.08c-.01.62-.04 1.85-.06 2.46l-2.33-.04c-.02-.59-.05-1.76-.06-2.34ZM110.18 178.14l2.56.04c-.02.6-.05 1.79-.06 2.39-.63-.01-1.88-.04-2.51-.05 0-.59 0-1.78.01-2.38ZM148.93 178.12c.64.02 1.9.05 2.54.07-.02.58-.05 1.73-.07 2.31-.57.04-1.71.1-2.29.14-.04-.63-.13-1.89-.18-2.52ZM188.09 178.23c1.42-1.23 3.22 1.22 1.72 2.27-1.4 1.19-3.18-1.23-1.72-2.27ZM226.4 178.21l2.56-.08c-.02.62-.05 1.85-.06 2.46-.6-.01-1.81-.04-2.41-.06-.02-.58-.07-1.74-.09-2.32Z"/></g><g fill="#da0000"><path d="M116.74 95.75c1.14 1.02 2.17 2.16 3.44 3.02 1.78.77 3.41-.51 4.82-1.4 1.43.91 3.08 2.2 4.87 1.37 1.24-.86 2.27-1.98 3.39-2.98-.2 1.99-.29 4.4-2.35 5.43-1.93 1.35-4.13.26-5.91-.73-1.78.98-3.96 2.08-5.88.75-2.08-1.03-2.18-3.46-2.38-5.46Z"/><path d="M121.31 104.56c1.25-1.05 2.48-2.11 3.69-3.2 1.22 1.09 2.45 2.16 3.7 3.21.2 13.61-.35 27.2-1.01 40.79 6.02-5.24 11.11-12.15 12.17-20.26 1.29-7.62-1.2-15.26-4.77-21.92 7.05 5.63 9.85 15.05 9.58 23.79-.47 9.43-6.77 17.62-14.64 22.37 3.64 1.32 7.5 1.51 11.32 1.75-4.47 1.71-9.3 1.69-13.97 1-.79 1.07-1.59 2.14-2.38 3.21-.8-1.07-1.59-2.14-2.39-3.21-4.6.63-9.4.82-13.77-1.03 3.76-.17 7.55-.44 11.13-1.71-8.2-4.87-14.49-13.61-14.6-23.37.04-8.39 2.76-17.39 9.54-22.8-3.56 6.66-6.06 14.29-4.77 21.91 1.06 8.11 6.14 15.03 12.17 20.27-.65-13.59-1.23-27.19-1-40.8Z"/><path d="M101.2 109.16c3.03-3.13 7.02-5.07 11.03-6.63-6.49 6.13-11.67 14.31-11.93 23.47-.45 7.11 2.46 13.79 5.84 19.85-5.69-3.82-9.83-9.94-10.96-16.73-1.4-7.1.88-14.84 6.02-19.96ZM137.75 102.53c7.09 2.33 13.61 7.37 16.1 14.6 3.91 10.45-.88 22.8-10.06 28.81 3.31-5.79 6.09-12.19 5.93-18.99 0-9.46-5.08-18.2-11.97-24.42ZM27.09 168.49c.3-.89.6-1.77.89-2.64.34.67 1 2 1.33 2.67 5.72-.06 11.44-.07 17.16 0 .19-.55.55-1.65.74-2.19.4.49 1.22 1.47 1.62 1.96 5.59.5 11.22-.01 16.83.25.26-.6.79-1.82 1.06-2.42.35.54 1.06 1.62 1.41 2.16 5.59.38 11.27.33 16.87.03.28-.45.84-1.34 1.12-1.79.38.43 1.14 1.28 1.52 1.71 5.49.51 11.08.34 16.58.06.47-.51 1.39-1.53 1.85-2.04.12.57.35 1.7.47 2.26 5.77-.06 11.54-.03 17.32-.02.28-.66.85-1.96 1.14-2.61.29.65.86 1.96 1.15 2.61 5.67-.15 11.36.27 17.02-.19.36-.5 1.08-1.51 1.44-2.01.22.56.67 1.68.89 2.24 5.42-.21 10.84.18 16.25-.16.53-.47 1.6-1.41 2.13-1.87.28.45.84 1.36 1.12 1.81 5.61.3 11.29.34 16.89-.02.29-.5.87-1.51 1.16-2.02.38.51 1.14 1.54 1.52 2.05 5.62.46 11.28-.03 16.92.2.2-.55.59-1.65.79-2.2.4.49 1.18 1.48 1.58 1.97 5.59.49 11.22.02 16.83.23.33-.67 1-2 1.33-2.67.29.88.59 1.75.88 2.63 5.7-.16 11.43.31 17.11-.19.39-.52 1.16-1.57 1.55-2.1.14.64.43 1.9.58 2.54l-.56 1.55c-6.32 0-12.65-.01-18.97.01 0 .61-.01 1.84-.01 2.45 6 .02 11.99.01 17.99.01l-.59 1.35c-1.94.11-3.88.13-5.82.17-.01.53-.02 1.59-.03 2.12.78.13 2.34.39 3.12.51-.13.23-.37.67-.5.89-1.32.23-2.64.41-3.96.55 0-1.38 0-2.76.01-4.13-3.4-.01-6.8-.01-10.2-.01-.01 2.1-.01 4.2-.01 6.31.57.03 1.71.1 2.28.13.09-1.33.19-2.65.28-3.98 1.73-.01 3.45-.01 5.18-.01-.01 1.3-.01 2.6-.02 3.9h6.7c-8.13 16.34-19.86 30.88-34.15 42.25-21.45 17.22-48.74 26.94-76.25 27.2h-3.28c-16.47-.22-32.91-3.67-48.02-10.25-26.37-11.42-48.81-32.16-61.57-57.97.89-1.02 1.77-2.05 2.59-3.13-1.54-.03-2.78-.52-3.73-1.49 1.49-.45 3.02-.66 4.59-.62-.02 1.34-.03 2.67-.05 4.01 3.41.01 6.82.01 10.23 0-.01-3.43 0-6.85-.01-10.28l-2.45.04c0 2.6-.01 5.2-.02 7.81l-1.38.01c-.01-2.62-.01-5.23-.01-7.84-.61 0-1.82-.01-2.43-.01.01 2.6.01 5.2.01 7.81l-1.45.07c-.01-2.63 0-5.25 0-7.87-.61-.01-1.85-.01-2.46-.01v3.98c-2.43-.04-4.87-.06-7.29-.29l-.14-.33.04-.28c1.96-.55 4-.64 6.01-.77.01-.57.02-1.71.02-2.28-2.48-.02-4.96-.04-7.45-.07l-.47-1.38c.13-.67.38-2.01.51-2.68.39.53 1.18 1.59 1.57 2.11 5.68.5 11.41.03 17.1.2m1.72 1.79c.01.62.01 1.85.01 2.47 8.55-.12 17.12.25 25.65-.18.04-.57.12-1.71.17-2.29-8.61-.01-17.22 0-25.83 0m38.85-.04c-.03.63-.09 1.89-.13 2.52 8.56-.02 17.12-.02 25.68 0l.08-2.48c-8.54-.02-17.09.05-25.63-.04m34.79.06c.01 2.61.01 5.22.01 7.83l-1.37-.01c-.03-2.6-.04-5.2-.04-7.8-.61-.01-1.84-.03-2.46-.05-.55 2.64 1.34 6.54-1.29 8.31-.19-2.76-.17-5.53-.16-8.3h-2.35c-.06 1.31-.13 2.63-.2 3.95-2.55-.03-5.1-.03-7.64-.02-.01 2.11-.01 4.22-.01 6.33 2.11.01 4.23.02 6.34.02 0-.61-.01-1.84-.01-2.45-.92.01-2.75.02-3.66.03l-.32-1.47c1.8-.01 3.61-.02 5.42-.01.01 1.29.01 2.59.02 3.89 3.39.01 6.79.01 10.18 0-.04-3.43-.03-6.86-.02-10.29l-2.44.04m3.86.24c-.01.55-.04 1.66-.05 2.22 8.6-.03 17.19.02 25.79-.03 0-.61.02-1.82.03-2.43-8.59.12-17.21-.36-25.77.24m27.15-.26-.03 3.91c-2.57.01-5.13.01-7.7.02v6.35c2.11 0 4.22-.01 6.33-.02 0-.56-.01-1.69-.01-2.26-1.55-.29-3.52.23-4.45-1.45 1.95-.15 3.9-.19 5.86-.21-.01 1.31-.01 2.62-.01 3.93 3.44.02 6.88.02 10.33 0-.04-3.43-.03-6.85-.02-10.27-.62.01-1.87.01-2.49.02.02 2.6.02 5.2.02 7.8l-1.5.04c-.01-2.61 0-5.23.01-7.85h-2.48c0 2.61.01 5.23 0 7.85l-1.44-.04c0-2.61.01-5.21.02-7.81-.61 0-1.83-.01-2.44-.01m11.68.03c-.01.6-.02 1.8-.03 2.41 8.59.05 17.17.05 25.75-.01v-2.4c-8.57-.05-17.15-.05-25.72 0m27.07-.03c.01 1.31.01 2.61.02 3.91-2.59.01-5.19.01-7.78.02.01 2.11 0 4.23 0 6.34 2.13.01 4.26 0 6.39-.01l.04-2.34c-1.33-.05-2.66-.08-3.98-.12l-.04-1.42c1.8-.01 3.59-.01 5.39 0l-.06 3.88c3.41.03 6.83.03 10.25.01-.02-3.43 0-6.86-.01-10.29-.61.02-1.84.05-2.45.07-.38 2.65 1.25 6.42-1.28 8.29-.19-2.78-.16-5.56-.13-8.33h-2.45c.01 2.6.02 5.21.02 7.82l-1.44.02c-.02-2.62-.01-5.23 0-7.84-.62 0-1.86 0-2.49-.01m11.66 0v2.47c8.55-.12 17.12.24 25.67-.17.03-.57.1-1.72.13-2.29-8.6-.02-17.2-.01-25.8-.01m-127.92.03c-.02.97-.07 2.91-.09 3.88-2.56.01-5.12.01-7.68.02.01 2.11 0 4.22-.01 6.34 2.12 0 4.24.01 6.35.01.02-.6.04-1.79.05-2.39-1.3-.03-2.61-.06-3.91-.08v-1.45l5.2.03c.05 1.29.11 2.59.17 3.89 3.37 0 6.74 0 10.11-.02-.01-3.42.02-6.84 0-10.26-.61 0-1.83.01-2.44.01.01 2.56.01 5.13.01 7.69-.37-.01-1.1-.03-1.46-.03v-7.67h-2.42c.01 2.74.03 5.48-.1 8.22-2.8-1.44-.72-5.67-1.35-8.23l-2.43.04m155.03.02c-.02.96-.07 2.9-.1 3.87-2.55 0-5.11 0-7.66.01 0 2.11 0 4.22-.02 6.34 2.13 0 4.25.01 6.38 0 0-.6.02-1.79.02-2.39-1.3-.02-2.6-.05-3.89-.07l-.02-1.45 5.22.03c.03 1.29.07 2.58.12 3.88 3.38.02 6.76.02 10.15-.02-.02-3.42.01-6.83.01-10.25h-2.44c0 2.57 0 5.13-.01 7.7-.36-.01-1.09-.02-1.45-.02 0-2.56 0-5.12.01-7.67-.6 0-1.82-.01-2.42-.01 0 2.77.02 5.54-.17 8.31-2.61-1.8-.73-5.68-1.28-8.33-.61.02-1.84.05-2.45.07m-170.58 3.9v2.39c1.3.01 2.61.03 3.91.05l-.01 1.44c-1.72 0-3.43.01-5.14.02-.04-.98-.13-2.92-.17-3.9-3.38-.04-6.77-.04-10.16-.03v6.36h2.4c.02-1.3.03-2.61.06-3.91 1.76 0 3.52 0 5.28.01 0 1.29.01 2.59.01 3.89 3.4.01 6.81.01 10.22 0-.02-2.12-.02-4.24-.02-6.35-2.13 0-4.26.01-6.38.03m27.16-.02c.01 2.1.01 4.2 0 6.3.58.03 1.74.1 2.32.14l.24-3.99c1.74 0 3.47-.01 5.2-.01-.01 1.3-.03 2.6-.05 3.9 3.43.01 6.85.01 10.28 0-.01-2.12-.01-4.24 0-6.35-2.15 0-4.28.01-6.42.04 0 .59.01 1.77.02 2.36 1.33.03 2.65.05 3.98.08l-.02 1.44h-5.33v-3.91c-3.4-.02-6.81-.01-10.22 0m38.76 0c0 2.11 0 4.23-.01 6.35.63-.01 1.88-.02 2.51-.03l-.06-3.88c1.79 0 3.58 0 5.37.01-.02 1.29-.04 2.59-.05 3.88 3.4.03 6.8.03 10.2.01-.01-2.12-.01-4.24-.01-6.35-2.12 0-4.24.01-6.35.03.01.58.05 1.75.07 2.34 1.46.06 2.91.16 4.37.27-1.19 2.13-3.87.96-5.78 1.35-.02-1.33-.03-2.66-.05-3.98-3.4-.01-6.81-.01-10.21 0m38.85.01c0 2.11 0 4.22-.01 6.33h2.39c-.01-1.3-.01-2.6-.01-3.89 1.76-.01 3.52-.01 5.29 0-.01 1.28-.02 2.56-.02 3.85 3.41.07 6.82.06 10.23.03.01-2.1.02-4.21.02-6.32-2.11-.01-4.23-.02-6.34-.02l.01 2.42 3.96.06c-.06.36-.19 1.08-.26 1.43-1.67.01-3.34.02-5 .04-.09-1.32-.16-2.64-.23-3.96-3.35.01-6.69.01-10.03.03m38.7-.02c0 2.12-.01 4.24-.01 6.36h2.43c.01-1.31.01-2.61.02-3.9 1.77-.01 3.53-.01 5.3 0v3.89c3.4.02 6.81.02 10.22-.01-.02-2.11-.02-4.22-.01-6.34-2.13 0-4.25.01-6.37.03 0 .59.01 1.79.01 2.38l3.89.06-.02 1.45c-1.72 0-3.43 0-5.15.01l-.15-3.91c-3.39-.03-6.77-.02-10.16-.02m-150.86 4.09c-1.44 1.13.53 3.4 1.85 2.15 1.49-1.14-.5-3.44-1.85-2.15m38.45-.09c.01.58.04 1.75.06 2.34l2.33.04c.02-.61.05-1.84.06-2.46l-2.45.08m38.72-.06c-.01.6-.01 1.79-.01 2.38.63.01 1.88.04 2.51.05.01-.6.04-1.79.06-2.39l-2.56-.04m38.75-.02c.05.63.14 1.89.18 2.52.58-.04 1.72-.1 2.29-.14.02-.58.05-1.73.07-2.31-.64-.02-1.9-.05-2.54-.07m39.16.11c-1.46 1.04.32 3.46 1.72 2.27 1.5-1.05-.3-3.5-1.72-2.27m38.31-.02c.02.58.07 1.74.09 2.32.6.02 1.81.05 2.41.06.01-.61.04-1.84.06-2.46l-2.56.08Z"/></g></svg>